<svg width="61" height="61" viewBox="0 0 61 61" fill="none" xmlns="http://www.w3.org/2000/svg">
<path id="instagram" d="M30.1586 20.4484C24.65 20.4484 20.1546 24.9439 20.1546 30.4526C20.1546 35.9614 24.65 40.4569 30.1586 40.4569C35.6672 40.4569 40.1627 35.9614 40.1627 30.4526C40.1627 24.9439 35.6672 20.4484 30.1586 20.4484ZM60.1633 30.4526C60.1633 26.3098 60.2009 22.2046 59.9682 18.0693C59.7356 13.266 58.6398 9.00314 55.1275 5.49077C51.6077 1.97089 47.3524 0.882658 42.5493 0.650001C38.4065 0.417344 34.3013 0.454869 30.1661 0.454869C26.0234 0.454869 21.9182 0.417344 17.783 0.650001C12.9798 0.882658 8.71704 1.9784 5.20473 5.49077C1.68492 9.01065 0.5967 13.266 0.364047 18.0693C0.131395 22.2121 0.168919 26.3173 0.168919 30.4526C0.168919 34.5879 0.131395 38.7007 0.364047 42.836C0.5967 47.6393 1.69242 51.9021 5.20473 55.4145C8.72454 58.9344 12.9798 60.0226 17.783 60.2553C21.9257 60.4879 26.0309 60.4504 30.1661 60.4504C34.3088 60.4504 38.414 60.4879 42.5493 60.2553C47.3524 60.0226 51.6152 58.9269 55.1275 55.4145C58.6473 51.8946 59.7356 47.6393 59.9682 42.836C60.2084 38.7007 60.1633 34.5954 60.1633 30.4526ZM30.1586 45.8455C21.6405 45.8455 14.766 38.9709 14.766 30.4526C14.766 21.9344 21.6405 15.0597 30.1586 15.0597C38.6767 15.0597 45.5512 21.9344 45.5512 30.4526C45.5512 38.9709 38.6767 45.8455 30.1586 45.8455ZM46.1817 18.0242C44.1928 18.0242 42.5868 16.4182 42.5868 14.4293C42.5868 12.4405 44.1928 10.8344 46.1817 10.8344C48.1705 10.8344 49.7765 12.4405 49.7765 14.4293C49.7771 14.9016 49.6845 15.3693 49.5041 15.8057C49.3236 16.2422 49.0589 16.6387 48.7249 16.9726C48.391 17.3066 47.9945 17.5713 47.5581 17.7518C47.1216 17.9323 46.6539 18.0248 46.1817 18.0242Z" fill="white"/>
</svg>
