<svg width="61" height="61" viewBox="0 0 61 61" fill="none" xmlns="http://www.w3.org/2000/svg">
<path fill-rule="evenodd" clip-rule="evenodd" d="M8.16669 0.452637C3.74841 0.452637 0.166687 4.03436 0.166687 8.45264V52.4526C0.166687 56.8709 3.74841 60.4526 8.16669 60.4526H52.1667C56.585 60.4526 60.1667 56.8709 60.1667 52.4526V8.45264C60.1667 4.03436 56.585 0.452637 52.1667 0.452637H8.16669ZM15.0583 28.0428L44.6084 16.6478C45.9567 16.0378 47.26 16.9728 46.745 19.0378L41.7134 42.7512C41.3617 44.4378 40.3467 44.8378 38.9333 44.0595L31.2683 38.3978L27.5833 41.9812C27.5696 41.9944 27.5559 42.0076 27.5423 42.0208C27.1313 42.4183 26.7905 42.7478 26.0483 42.7478L26.5717 34.9278L26.5683 34.9262H26.5717L40.7934 22.0912C41.4167 21.5378 40.6584 21.2662 39.8284 21.7712L22.275 32.8462L14.6883 30.4795C13.0533 29.9778 13.0417 28.8528 15.0583 28.0428Z" fill="white"/>
</svg>
